0
SECTION
2
HEADER
9
$INSUNITS
70
4
9
$ACADVER
1
AC1014
9
$HANDSEED
5
FFFF
0
ENDSEC
0
SECTION
2
TABLES
0
TABLE
2
VPORT
5
8
100
AcDbSymbolTable
0
ENDTAB
0
TABLE
2
LTYPE
5
5
100
AcDbSymbolTable
0
LTYPE
5
14
100
AcDbSymbolTableRecord
100
AcDbLinetypeTableRecord
2
BYBLOCK
70
0
0
LTYPE
5
15
100
AcDbSymbolTableRecord
100
AcDbLinetypeTableRecord
2
BYLAYER
70
0
0
ENDTAB
0
TABLE
2
LAYER
5
2
100
AcDbSymbolTable
70
2
0
LAYER
5
50
100
AcDbSymbolTableRecord
100
AcDbLayerTableRecord
2
0
70
0
6
CONTINUOUS
0
ENDTAB
0
TABLE
2
STYLE
5
3
100
AcDbSymbolTable
70
1
0
STYLE
5
11
100
AcDbSymbolTableRecord
100
AcDbTextStyleTableRecord
2
STANDARD
70
0
0
ENDTAB
0
TABLE
2
VIEW
5
6
100
AcDbSymbolTable
70
0
0
ENDTAB
0
TABLE
2
UCS
5
7
100
AcDbSymbolTable
70
0
0
ENDTAB
0
TABLE
2
APPID
5
9
100
AcDbSymbolTable
70
2
0
APPID
5
12
100
AcDbSymbolTableRecord
100
AcDbRegAppTableRecord
2
ACAD
70
0
0
ENDTAB
0
TABLE
2
DIMSTYLE
5
A
100
AcDbSymbolTable
70
1
0
ENDTAB
0
TABLE
2
BLOCK_RECORD
5
1
100
AcDbSymbolTable
70
1
0
BLOCK_RECORD
5
1F
100
AcDbSymbolTableRecord
100
AcDbBlockTableRecord
2
*MODEL_SPACE
0
BLOCK_RECORD
5
1B
100
AcDbSymbolTableRecord
100
AcDbBlockTableRecord
2
*PAPER_SPACE
0
ENDTAB
0
ENDSEC
0
SECTION
2
BLOCKS
0
BLOCK
5
20
100
AcDbEntity
100
AcDbBlockBegin
2
*MODEL_SPACE
0
ENDBLK
5
21
100
AcDbEntity
100
AcDbBlockEnd
0
BLOCK
5
1C
100
AcDbEntity
100
AcDbBlockBegin
2
*PAPER_SPACE
0
ENDBLK
5
1D
100
AcDbEntity
100
AcDbBlockEnd
0
ENDSEC
0
SECTION
2
ENTITIES
0
LWPOLYLINE
5
100
100
AcDbEntity
8
0
100
AcDbPolyline
90
28
70
1
43
0.0
10
34.998566299170101
20
4.4568502517478548
42
-0.18267581368159938
10
34.748566299170101
20
3.79541242398171
42
0.18267581368159896
10
34.498566299170101
20
3.133974596215563
10
34.498566299170101
20
-3.133974596215563
42
0.18267581368159885
10
34.748566299170101
20
-3.7954124239817082
42
-0.18267581368159891
10
34.998566299170101
20
-4.4568502517478548
10
34.998566299170101
20
-7.5757149114872915
42
-0.40316571088176134
10
33
20
-9.5
10
32.799999999999997
20
-9.5000000000000089
42
-0.41421356237309664
10
31.999999999999989
20
-8.6999999999999993
10
31.999999999999993
20
-7.9000000000000004
42
0.41421356237309404
10
30.999999999999993
20
-6.9000000000000092
10
-31.200000000000014
20
-6.8999999999999995
42
0.41421356237309176
10
-32.200000000000017
20
-7.9000000000000004
10
-32.200000000000017
20
-8.7000000000000011
42
-0.41421356237308649
10
-33
20
-9.5000000000000036
42
-0.40316571088179076
10
-34.998566299170108
20
-7.5757149114870925
10
-34.998566299170108
20
7.575714911487057
42
-0.40316571088179537
10
-33.000000000000007
20
9.5000000000000036
42
-0.41421356237309098
10
-32.200000000000017
20
8.6999999999999993
10
-32.200000000000017
20
7.9000000000000004
42
0.41421356237309209
10
-31.20000000000001
20
6.8999999999999986
10
30.999999999999996
20
6.9000000000000057
42
0.41421356237309342
10
31.999999999999996
20
7.8999999999999995
10
31.999999999999996
20
8.6999999999999993
42
-0.41421356237309503
10
32.79999999999999
20
9.5
10
33
20
9.5000000000000036
42
-0.40316571088175168
10
34.998566299170101
20
7.5757149114873625
0
CIRCLE
5
101
100
AcDbEntity
8
0
100
AcDbCircle
10
24
20
0
30
0
40
1.0499999999999998
210
0
220
-0
230
1
0
CIRCLE
5
102
100
AcDbEntity
8
0
100
AcDbCircle
10
-25
20
0
30
0
40
1.0499999999999998
210
0
220
-0
230
1
0
ENDSEC
0
SECTION
2
OBJECTS
0
DICTIONARY
5
C
100
AcDbDictionary
3
ACAD_GROUP
350
D
3
ACAD_MLINESTYLE
350
17
0
DICTIONARY
5
D
100
AcDbDictionary
0
DICTIONARY
5
1A
330
C
100
AcDbDictionary
0
DICTIONARY
5
17
100
AcDbDictionary
0
ENDSEC
0
EOF
