0
SECTION
2
HEADER
9
$INSUNITS
70
4
9
$ACADVER
1
AC1014
9
$HANDSEED
5
FFFF
0
ENDSEC
0
SECTION
2
TABLES
0
TABLE
2
VPORT
5
8
100
AcDbSymbolTable
0
ENDTAB
0
TABLE
2
LTYPE
5
5
100
AcDbSymbolTable
0
LTYPE
5
14
100
AcDbSymbolTableRecord
100
AcDbLinetypeTableRecord
2
BYBLOCK
70
0
0
LTYPE
5
15
100
AcDbSymbolTableRecord
100
AcDbLinetypeTableRecord
2
BYLAYER
70
0
0
ENDTAB
0
TABLE
2
LAYER
5
2
100
AcDbSymbolTable
70
2
0
LAYER
5
50
100
AcDbSymbolTableRecord
100
AcDbLayerTableRecord
2
0
70
0
6
CONTINUOUS
0
ENDTAB
0
TABLE
2
STYLE
5
3
100
AcDbSymbolTable
70
1
0
STYLE
5
11
100
AcDbSymbolTableRecord
100
AcDbTextStyleTableRecord
2
STANDARD
70
0
0
ENDTAB
0
TABLE
2
VIEW
5
6
100
AcDbSymbolTable
70
0
0
ENDTAB
0
TABLE
2
UCS
5
7
100
AcDbSymbolTable
70
0
0
ENDTAB
0
TABLE
2
APPID
5
9
100
AcDbSymbolTable
70
2
0
APPID
5
12
100
AcDbSymbolTableRecord
100
AcDbRegAppTableRecord
2
ACAD
70
0
0
ENDTAB
0
TABLE
2
DIMSTYLE
5
A
100
AcDbSymbolTable
70
1
0
ENDTAB
0
TABLE
2
BLOCK_RECORD
5
1
100
AcDbSymbolTable
70
1
0
BLOCK_RECORD
5
1F
100
AcDbSymbolTableRecord
100
AcDbBlockTableRecord
2
*MODEL_SPACE
0
BLOCK_RECORD
5
1B
100
AcDbSymbolTableRecord
100
AcDbBlockTableRecord
2
*PAPER_SPACE
0
ENDTAB
0
ENDSEC
0
SECTION
2
BLOCKS
0
BLOCK
5
20
100
AcDbEntity
100
AcDbBlockBegin
2
*MODEL_SPACE
0
ENDBLK
5
21
100
AcDbEntity
100
AcDbBlockEnd
0
BLOCK
5
1C
100
AcDbEntity
100
AcDbBlockBegin
2
*PAPER_SPACE
0
ENDBLK
5
1D
100
AcDbEntity
100
AcDbBlockEnd
0
ENDSEC
0
SECTION
2
ENTITIES
0
ARC
5
100
100
AcDbEntity
8
0
100
AcDbCircle
10
-34.842138964214932
20
2.7162260128340074
30
0
40
0.16240377801866224
100
AcDbArc
50
193.58364059347346
51
269.80166690100333
0
LINE
5
101
100
AcDbEntity
8
0
100
AcDbLine
10
-34.842701134422427
20
2.5538232078108418
30
0
11
-33.85540879972045
21
2.5504056169843365
31
0
0
ARC
5
102
100
AcDbEntity
8
0
100
AcDbCircle
10
-33.854716487984433
20
2.7504044187418963
30
0
40
0.19999999999999896
100
AcDbArc
50
269.80166690100873
51
297.05885595449678
0
ARC
5
103
100
AcDbEntity
8
0
100
AcDbCircle
10
-33.650009000000004
20
2.349661553099736
30
0
40
0.24999999999998382
100
AcDbArc
50
-27.263543016596973
51
117.05885595450205
0
ARC
5
104
100
AcDbEntity
8
0
100
AcDbCircle
10
-33.250000000000064
20
2.1435237353200347
30
0
40
0.19999999999993862
100
AcDbArc
50
152.73645698340434
51
180
0
LINE
5
105
100
AcDbEntity
8
0
100
AcDbLine
10
-33.450000000000003
20
2.1435237353200352
30
0
11
-33.450000000000003
21
-2.1435237353200352
31
0
0
ARC
5
106
100
AcDbEntity
8
0
100
AcDbCircle
10
-33.249999999999901
20
-2.1435237353200352
30
0
40
0.20000000000010232
100
AcDbArc
50
180
51
207.65480727083343
0
ARC
5
107
100
AcDbEntity
8
0
100
AcDbCircle
10
-33.648592000000008
20
-2.352388326708863
30
0
40
0.2500000000000035
100
AcDbArc
50
-118.0386056731847
51
27.654807270835828
0
ARC
5
108
100
AcDbEntity
8
0
100
AcDbCircle
10
-33.860121872269644
20
-2.7495723056627708
30
0
40
0.20000000000007268
100
AcDbArc
50
61.96139432681376
51
89.801896328474513
0
LINE
5
109
100
AcDbEntity
8
0
100
AcDbLine
10
-33.859430361381769
20
-2.5495735011345411
30
0
11
-34.760043753543066
21
-2.5464595626891882
31
0
0
ARC
5
110
100
AcDbEntity
8
0
100
AcDbCircle
10
-34.760884356754843
20
-2.7895788546496147
30
0
40
0.24312074518045285
100
AcDbArc
50
89.801896328480609
51
169.58566794939438
0
LINE
5
111
100
AcDbEntity
8
0
100
AcDbLine
10
-34.999999999999993
20
-2.7456310914237712
30
0
11
-35
21
-7.5000000000000009
31
0
0
ARC
5
112
100
AcDbEntity
8
0
100
AcDbCircle
10
-32.999999999999993
20
-7.4999999999999956
30
0
40
2.0000000000000062
100
AcDbArc
50
180
51
269.99999999999983
0
LINE
5
113
100
AcDbEntity
8
0
100
AcDbLine
10
-33
20
-9.5000000000000018
30
0
11
33
21
-9.5
31
0
0
ARC
5
114
100
AcDbEntity
8
0
100
AcDbCircle
10
32.999999999999993
20
-7.4999999999999956
30
0
40
2.0000000000000053
100
AcDbArc
50
270.00000000000023
51
360
0
LINE
5
115
100
AcDbEntity
8
0
100
AcDbLine
10
35
20
-7.5
30
0
11
35
21
-4.6000000000000005
31
0
0
LINE
5
116
100
AcDbEntity
8
0
100
AcDbLine
10
34.200000000000003
20
-3.7999999999999998
30
0
11
30
21
-3.7999999999999998
31
0
0
LINE
5
117
100
AcDbEntity
8
0
100
AcDbLine
10
30
20
-3.7999999999999998
30
0
11
30
21
3.7999999999999998
31
0
0
LINE
5
118
100
AcDbEntity
8
0
100
AcDbLine
10
30
20
3.7999999999999998
30
0
11
34.200000000000003
21
3.7999999999999998
31
0
0
LINE
5
119
100
AcDbEntity
8
0
100
AcDbLine
10
35
20
4.6000000000000005
30
0
11
35
21
7.5000000000000009
31
0
0
ARC
5
120
100
AcDbEntity
8
0
100
AcDbCircle
10
32.999999999999993
20
7.4999999999999956
30
0
40
2.0000000000000062
100
AcDbArc
50
0
51
89.999999999999801
0
LINE
5
121
100
AcDbEntity
8
0
100
AcDbLine
10
33
20
9.5000000000000018
30
0
11
-33
21
9.5
31
0
0
ARC
5
122
100
AcDbEntity
8
0
100
AcDbCircle
10
-32.999999999999993
20
7.4999999999999956
30
0
40
2.000000000000004
100
AcDbArc
50
90.000000000000199
51
180
0
LINE
5
123
100
AcDbEntity
8
0
100
AcDbLine
10
-35
20
7.5
30
0
11
-35
21
2.6780831170918136
31
0
0
LWPOLYLINE
5
124
100
AcDbEntity
8
0
100
AcDbPolyline
90
4
70
1
43
0.0
10
30.799999999999997
20
6.8999999999999995
42
-0.99999999999999989
10
30.799999999999997
20
8.9000000000000021
10
30.999999999999996
20
8.899999999999995
42
-0.99999999999999989
10
30.999999999999996
20
6.9000000000000057
0
LWPOLYLINE
5
125
100
AcDbEntity
8
0
100
AcDbPolyline
90
4
70
1
43
0.0
10
-27.552941176470597
20
6.8999999999999995
42
-0.99999999999999989
10
-27.552941176470597
20
8.9000000000000021
10
-27.352941176470598
20
8.899999999999995
42
-0.99999999999999989
10
-27.352941176470598
20
6.9000000000000057
0
LWPOLYLINE
5
126
100
AcDbEntity
8
0
100
AcDbPolyline
90
4
70
1
43
0.0
10
1.623529411764699
20
-8.9000000000000021
42
-0.99999999999999989
10
1.6235294117646994
20
-6.8999999999999995
10
1.8235294117646996
20
-6.9000000000000057
42
-0.99999999999999989
10
1.8235294117646992
20
-8.899999999999995
0
LWPOLYLINE
5
127
100
AcDbEntity
8
0
100
AcDbPolyline
90
4
70
1
43
0.0
10
12.564705882352936
20
-8.9000000000000021
42
-0.99999999999999989
10
12.564705882352936
20
-6.8999999999999995
10
12.764705882352935
20
-6.9000000000000057
42
-0.99999999999999989
10
12.764705882352935
20
-8.899999999999995
0
LWPOLYLINE
5
128
100
AcDbEntity
8
0
100
AcDbPolyline
90
4
70
1
43
0.0
10
27.152941176470584
20
6.8999999999999995
42
-0.99999999999999989
10
27.152941176470584
20
8.9000000000000021
10
27.352941176470583
20
8.899999999999995
42
-0.99999999999999989
10
27.352941176470583
20
6.9000000000000057
0
LWPOLYLINE
5
129
100
AcDbEntity
8
0
100
AcDbPolyline
90
4
70
1
43
0.0
10
-9.3176470588235318
20
-8.9000000000000021
42
-0.99999999999999989
10
-9.3176470588235318
20
-6.8999999999999995
10
-9.1176470588235325
20
-6.9000000000000057
42
-0.99999999999999989
10
-9.1176470588235325
20
-8.899999999999995
0
LWPOLYLINE
5
130
100
AcDbEntity
8
0
100
AcDbPolyline
90
4
70
1
43
0.0
10
-31.200000000000014
20
6.8999999999999995
42
-0.99999999999999989
10
-31.200000000000014
20
8.9000000000000021
10
-31.000000000000014
20
8.899999999999995
42
-0.99999999999999989
10
-31.000000000000014
20
6.9000000000000057
0
LWPOLYLINE
5
131
100
AcDbEntity
8
0
100
AcDbPolyline
90
4
70
1
43
0.0
10
-31.200000000000014
20
-8.9000000000000021
42
-0.99999999999999989
10
-31.200000000000014
20
-6.8999999999999995
10
-31.000000000000014
20
-6.9000000000000057
42
-0.99999999999999989
10
-31.000000000000014
20
-8.899999999999995
0
LWPOLYLINE
5
132
100
AcDbEntity
8
0
100
AcDbPolyline
90
4
70
1
43
0.0
10
5.2705882352941114
20
-8.9000000000000021
42
-0.99999999999999989
10
5.2705882352941114
20
-6.8999999999999995
10
5.4705882352941115
20
-6.9000000000000057
42
-0.99999999999999989
10
5.4705882352941115
20
-8.899999999999995
0
LWPOLYLINE
5
133
100
AcDbEntity
8
0
100
AcDbPolyline
90
4
70
1
43
0.0
10
-27.552941176470597
20
-8.9000000000000021
42
-0.99999999999999989
10
-27.552941176470597
20
-6.8999999999999995
10
-27.352941176470598
20
-6.9000000000000057
42
-0.99999999999999989
10
-27.352941176470598
20
-8.899999999999995
0
LWPOLYLINE
5
134
100
AcDbEntity
8
0
100
AcDbPolyline
90
4
70
1
43
0.0
10
8.9176470588235226
20
-8.9000000000000021
42
-0.99999999999999989
10
8.9176470588235226
20
-6.8999999999999995
10
9.1176470588235237
20
-6.9000000000000057
42
-0.99999999999999989
10
9.1176470588235237
20
-8.899999999999995
0
LWPOLYLINE
5
135
100
AcDbEntity
8
0
100
AcDbPolyline
90
4
70
1
43
0.0
10
19.858823529411758
20
6.8999999999999995
42
-0.99999999999999989
10
19.858823529411758
20
8.9000000000000021
10
20.058823529411761
20
8.899999999999995
42
-0.99999999999999989
10
20.058823529411761
20
6.9000000000000057
0
LWPOLYLINE
5
136
100
AcDbEntity
8
0
100
AcDbPolyline
90
4
70
1
43
0.0
10
-5.670588235294125
20
-8.9000000000000021
42
-0.99999999999999989
10
-5.670588235294125
20
-6.8999999999999995
10
-5.4705882352941249
20
-6.9000000000000057
42
-0.99999999999999989
10
-5.4705882352941249
20
-8.899999999999995
0
LWPOLYLINE
5
137
100
AcDbEntity
8
0
100
AcDbPolyline
90
4
70
1
43
0.0
10
-12.964705882352948
20
-8.9000000000000021
42
-0.99999999999999989
10
-12.964705882352948
20
-6.8999999999999995
10
-12.764705882352949
20
-6.9000000000000057
42
-0.99999999999999989
10
-12.764705882352949
20
-8.899999999999995
0
LWPOLYLINE
5
138
100
AcDbEntity
8
0
100
AcDbPolyline
90
4
70
1
43
0.0
10
27.152941176470584
20
-8.9000000000000021
42
-0.99999999999999989
10
27.152941176470584
20
-6.8999999999999995
10
27.352941176470583
20
-6.9000000000000057
42
-0.99999999999999989
10
27.352941176470583
20
-8.899999999999995
0
LWPOLYLINE
5
139
100
AcDbEntity
8
0
100
AcDbPolyline
90
4
70
1
43
0.0
10
-2.0235294117647133
20
-8.9000000000000021
42
-0.99999999999999989
10
-2.0235294117647125
20
-6.8999999999999995
10
-1.8235294117647125
20
-6.9000000000000057
42
-0.99999999999999989
10
-1.8235294117647129
20
-8.899999999999995
0
LWPOLYLINE
5
140
100
AcDbEntity
8
0
100
AcDbPolyline
90
4
70
1
43
0.0
10
23.505882352941171
20
-8.9000000000000021
42
-0.99999999999999989
10
23.505882352941171
20
-6.8999999999999995
10
23.705882352941174
20
-6.9000000000000057
42
-0.99999999999999989
10
23.705882352941174
20
-8.899999999999995
0
LWPOLYLINE
5
141
100
AcDbEntity
8
0
100
AcDbPolyline
90
4
70
1
43
0.0
10
30.799999999999997
20
-8.9000000000000021
10
30.999999999999996
20
-8.899999999999995
42
0.99999999999999989
10
30.999999999999996
20
-6.9000000000000057
10
30.799999999999997
20
-6.8999999999999995
42
0.99999999999999989
0
LWPOLYLINE
5
142
100
AcDbEntity
8
0
100
AcDbPolyline
90
4
70
1
43
0.0
10
23.505882352941171
20
6.8999999999999995
42
-0.99999999999999989
10
23.505882352941171
20
8.9000000000000021
10
23.705882352941174
20
8.899999999999995
42
-0.99999999999999989
10
23.705882352941174
20
6.9000000000000057
0
LWPOLYLINE
5
143
100
AcDbEntity
8
0
100
AcDbPolyline
90
4
70
1
43
0.0
10
16.211764705882349
20
-8.9000000000000021
42
-0.99999999999999989
10
16.211764705882349
20
-6.8999999999999995
10
16.411764705882348
20
-6.9000000000000057
42
-0.99999999999999989
10
16.411764705882348
20
-8.899999999999995
0
LWPOLYLINE
5
144
100
AcDbEntity
8
0
100
AcDbPolyline
90
4
70
1
43
0.0
10
19.858823529411758
20
-8.9000000000000021
42
-0.99999999999999989
10
19.858823529411758
20
-6.8999999999999995
10
20.058823529411761
20
-6.9000000000000057
42
-0.99999999999999989
10
20.058823529411761
20
-8.899999999999995
0
LWPOLYLINE
5
145
100
AcDbEntity
8
0
100
AcDbPolyline
90
4
70
1
43
0.0
10
1.623529411764699
20
6.8999999999999995
42
-0.99999999999999989
10
1.6235294117646994
20
8.9000000000000021
10
1.8235294117646996
20
8.899999999999995
42
-0.99999999999999989
10
1.8235294117646992
20
6.9000000000000057
0
LWPOLYLINE
5
146
100
AcDbEntity
8
0
100
AcDbPolyline
90
4
70
1
43
0.0
10
16.211764705882349
20
6.8999999999999995
42
-0.99999999999999989
10
16.211764705882349
20
8.9000000000000021
10
16.411764705882348
20
8.899999999999995
42
-0.99999999999999989
10
16.411764705882348
20
6.9000000000000057
0
LWPOLYLINE
5
147
100
AcDbEntity
8
0
100
AcDbPolyline
90
4
70
1
43
0.0
10
-9.3176470588235318
20
6.8999999999999995
42
-0.99999999999999989
10
-9.3176470588235318
20
8.9000000000000021
10
-9.1176470588235325
20
8.899999999999995
42
-0.99999999999999989
10
-9.1176470588235325
20
6.9000000000000057
0
LWPOLYLINE
5
148
100
AcDbEntity
8
0
100
AcDbPolyline
90
4
70
1
43
0.0
10
-23.90588235294118
20
6.8999999999999995
42
-0.99999999999999989
10
-23.90588235294118
20
8.9000000000000021
10
-23.705882352941181
20
8.899999999999995
42
-0.99999999999999989
10
-23.705882352941181
20
6.9000000000000057
0
LWPOLYLINE
5
149
100
AcDbEntity
8
0
100
AcDbPolyline
90
4
70
1
43
0.0
10
-20.258823529411774
20
6.8999999999999995
42
-0.99999999999999989
10
-20.258823529411774
20
8.9000000000000021
10
-20.058823529411775
20
8.899999999999995
42
-0.99999999999999989
10
-20.058823529411775
20
6.9000000000000057
0
LWPOLYLINE
5
150
100
AcDbEntity
8
0
100
AcDbPolyline
90
4
70
1
43
0.0
10
5.2705882352941114
20
6.8999999999999995
42
-0.99999999999999989
10
5.2705882352941114
20
8.9000000000000021
10
5.4705882352941115
20
8.899999999999995
42
-0.99999999999999989
10
5.4705882352941115
20
6.9000000000000057
0
LWPOLYLINE
5
151
100
AcDbEntity
8
0
100
AcDbPolyline
90
4
70
1
43
0.0
10
-16.611764705882365
20
6.8999999999999995
42
-0.99999999999999989
10
-16.611764705882365
20
8.9000000000000021
10
-16.411764705882366
20
8.899999999999995
42
-0.99999999999999989
10
-16.411764705882366
20
6.9000000000000057
0
LWPOLYLINE
5
152
100
AcDbEntity
8
0
100
AcDbPolyline
90
4
70
1
43
0.0
10
-23.90588235294118
20
-8.9000000000000021
42
-0.99999999999999989
10
-23.90588235294118
20
-6.8999999999999995
10
-23.705882352941181
20
-6.9000000000000057
42
-0.99999999999999989
10
-23.705882352941181
20
-8.899999999999995
0
LWPOLYLINE
5
153
100
AcDbEntity
8
0
100
AcDbPolyline
90
4
70
1
43
0.0
10
-5.670588235294125
20
6.8999999999999995
42
-0.99999999999999989
10
-5.670588235294125
20
8.9000000000000021
10
-5.4705882352941249
20
8.899999999999995
42
-0.99999999999999989
10
-5.4705882352941249
20
6.9000000000000057
0
LWPOLYLINE
5
154
100
AcDbEntity
8
0
100
AcDbPolyline
90
4
70
1
43
0.0
10
-20.258823529411774
20
-8.9000000000000021
42
-0.99999999999999989
10
-20.258823529411774
20
-6.8999999999999995
10
-20.058823529411775
20
-6.9000000000000057
42
-0.99999999999999989
10
-20.058823529411775
20
-8.899999999999995
0
LWPOLYLINE
5
155
100
AcDbEntity
8
0
100
AcDbPolyline
90
4
70
1
43
0.0
10
-12.964705882352948
20
6.8999999999999995
42
-0.99999999999999989
10
-12.964705882352948
20
8.9000000000000021
10
-12.764705882352949
20
8.899999999999995
42
-0.99999999999999989
10
-12.764705882352949
20
6.9000000000000057
0
LWPOLYLINE
5
156
100
AcDbEntity
8
0
100
AcDbPolyline
90
4
70
1
43
0.0
10
-16.611764705882365
20
-8.9000000000000021
42
-0.99999999999999989
10
-16.611764705882365
20
-6.8999999999999995
10
-16.411764705882366
20
-6.9000000000000057
42
-0.99999999999999989
10
-16.411764705882366
20
-8.899999999999995
0
LWPOLYLINE
5
157
100
AcDbEntity
8
0
100
AcDbPolyline
90
4
70
1
43
0.0
10
-2.0235294117647133
20
6.8999999999999995
42
-0.99999999999999989
10
-2.0235294117647125
20
8.9000000000000021
10
-1.8235294117647125
20
8.899999999999995
42
-0.99999999999999989
10
-1.8235294117647129
20
6.9000000000000057
0
LWPOLYLINE
5
158
100
AcDbEntity
8
0
100
AcDbPolyline
90
4
70
1
43
0.0
10
8.9176470588235226
20
6.8999999999999995
42
-0.99999999999999989
10
8.9176470588235226
20
8.9000000000000021
10
9.1176470588235237
20
8.899999999999995
42
-0.99999999999999989
10
9.1176470588235237
20
6.9000000000000057
0
LWPOLYLINE
5
159
100
AcDbEntity
8
0
100
AcDbPolyline
90
4
70
1
43
0.0
10
12.564705882352936
20
6.8999999999999995
42
-0.99999999999999989
10
12.564705882352936
20
8.9000000000000021
10
12.764705882352935
20
8.899999999999995
42
-0.99999999999999989
10
12.764705882352935
20
6.9000000000000057
0
CIRCLE
5
160
100
AcDbEntity
8
0
100
AcDbCircle
10
-25
20
0
30
0
40
1.5000000000000002
0
CIRCLE
5
161
100
AcDbEntity
8
0
100
AcDbCircle
10
25
20
0
30
0
40
1.5000000000000002
0
ARC
5
162
100
AcDbEntity
8
0
100
AcDbCircle
10
34.200000000000003
20
-4.600000000000005
30
0
40
0.80000000000000071
100
AcDbArc
50
0
51
90
0
ARC
5
163
100
AcDbEntity
8
0
100
AcDbCircle
10
34.200000000000003
20
4.600000000000005
30
0
40
0.80000000000000515
100
AcDbArc
50
270
51
360
0
ENDSEC
0
SECTION
2
OBJECTS
0
DICTIONARY
5
C
100
AcDbDictionary
3
ACAD_GROUP
350
D
3
ACAD_MLINESTYLE
350
17
0
DICTIONARY
5
D
100
AcDbDictionary
0
DICTIONARY
5
1A
330
C
100
AcDbDictionary
0
DICTIONARY
5
17
100
AcDbDictionary
0
ENDSEC
0
EOF
